<?xml version="1.0" encoding="UTF-8" standalone="no"?>
<!-- Created with Inkscape (http://www.inkscape.org/) -->

<svg
   width="79.793228mm"
   height="75.246857mm"
   viewBox="0 0 79.793228 75.246857"
   version="1.1"
   id="svg5"
   xml:space="preserve"
   inkscape:version="1.2 (dc2aedaf03, 2022-05-15)"
   sodipodi:docname="logo.svg"
   xmlns:inkscape="http://www.inkscape.org/namespaces/inkscape"
   xmlns:sodipodi="http://sodipodi.sourceforge.net/DTD/sodipodi-0.dtd"
   xmlns="http://www.w3.org/2000/svg"
   xmlns:svg="http://www.w3.org/2000/svg"><sodipodi:namedview
     id="namedview7"
     pagecolor="#ffffff"
     bordercolor="#666666"
     borderopacity="1.0"
     inkscape:showpageshadow="2"
     inkscape:pageopacity="0.0"
     inkscape:pagecheckerboard="0"
     inkscape:deskcolor="#d1d1d1"
     inkscape:document-units="mm"
     showgrid="false"
     inkscape:zoom="0.67526655"
     inkscape:cx="547.93177"
     inkscape:cy="850.0347"
     inkscape:window-width="1920"
     inkscape:window-height="1017"
     inkscape:window-x="-8"
     inkscape:window-y="-8"
     inkscape:window-maximized="1"
     inkscape:current-layer="layer1" /><defs
     id="defs2"><inkscape:path-effect
       effect="powerclip"
       id="path-effect1200"
       is_visible="true"
       lpeversion="1"
       inverse="true"
       flatten="false"
       hide_clip="false"
       message="Use fill-rule evenodd on &lt;b&gt;fill and stroke&lt;/b&gt; dialog if no flatten result after convert clip to paths." /><clipPath
       clipPathUnits="userSpaceOnUse"
       id="clipath_lpe_path-effect1200"><path
         class="st0"
         d="m 701.85394,350.68131 c -17.13411,-13.78614 -37.02548,-23.43642 -58.49236,-28.5569 -12.2105,-2.95416 -24.61791,-4.33277 -37.22235,-4.72668 -9.25638,-0.39427 -18.70975,-0.19662 -27.9661,-0.19662 H 445.62994 c -9.25638,0 -18.70969,0 -27.96604,0.19662 -12.6044,0.39425 -24.81491,1.77252 -37.22238,4.72668 -21.46688,5.12048 -41.16128,14.77076 -58.29539,28.5569 -34.66213,27.76898 -54.7504,69.71803 -54.7504,114.22743 0,44.50928 20.08827,86.45834 54.7504,114.22744 17.13411,13.78602 37.02545,23.4363 58.49233,28.55678 12.21053,2.95428 24.61797,4.3328 37.22238,4.7267 9.25638,0.39427 18.70966,0.19663 27.96604,0.19663 h 132.54325 c 9.25638,0 18.70963,0 27.966,-0.19663 12.60441,-0.39427 24.81495,-1.77242 37.22235,-4.7267 21.46689,-5.12048 41.16135,-14.77076 58.29546,-28.55678 34.66209,-27.7691 54.75036,-69.71816 54.75036,-114.22744 0,-44.5094 -20.08827,-86.45845 -54.75036,-114.22743 z m -64.79458,154.01004 c -6.49909,4.5298 -13.78602,7.28693 -21.46688,8.46867 -7.68083,1.18161 -15.55857,0.98505 -23.2394,0.98505 H 431.84386 c -7.87774,0 -15.55857,0.19662 -23.23937,-0.98505 -7.87776,-1.18174 -14.96772,-3.93887 -21.46688,-8.46867 -12.99831,-9.05935 -20.87607,-23.83023 -20.87607,-39.78261 0,-15.95249 7.87776,-30.72322 20.87607,-39.7827 6.49916,-4.52967 13.78605,-7.28692 21.46688,-8.46854 7.6808,-1.18173 15.55857,-0.98508 23.23937,-0.98508 h 160.50922 c 7.87783,0 15.55857,-0.19662 23.2394,0.98508 7.87773,1.18162 14.96779,3.93887 21.46688,8.46854 12.99834,9.05948 20.87608,23.83021 20.87608,39.7827 0.19662,15.95238 -7.68083,30.72326 -20.87608,39.78261 z"
         id="path1202"
         style="display:none;fill:#ffffff;fill-opacity:1;stroke-width:1.96943" /><path
         id="lpe_path-effect1200"
         style="fill:#ffffff;fill-opacity:1;stroke-width:1.96943"
         class="powerclip"
         d="M 42.999996,71.874591 H 981 V 957 H 42.999996 Z M 701.85394,350.68131 c -17.13411,-13.78614 -37.02548,-23.43642 -58.49236,-28.5569 -12.2105,-2.95416 -24.61791,-4.33277 -37.22235,-4.72668 -9.25638,-0.39427 -18.70975,-0.19662 -27.9661,-0.19662 H 445.62994 c -9.25638,0 -18.70969,0 -27.96604,0.19662 -12.6044,0.39425 -24.81491,1.77252 -37.22238,4.72668 -21.46688,5.12048 -41.16128,14.77076 -58.29539,28.5569 -34.66213,27.76898 -54.7504,69.71803 -54.7504,114.22743 0,44.50928 20.08827,86.45834 54.7504,114.22744 17.13411,13.78602 37.02545,23.4363 58.49233,28.55678 12.21053,2.95428 24.61797,4.3328 37.22238,4.7267 9.25638,0.39427 18.70966,0.19663 27.96604,0.19663 h 132.54325 c 9.25638,0 18.70963,0 27.966,-0.19663 12.60441,-0.39427 24.81495,-1.77242 37.22235,-4.7267 21.46689,-5.12048 41.16135,-14.77076 58.29546,-28.55678 34.66209,-27.7691 54.75036,-69.71816 54.75036,-114.22744 0,-44.5094 -20.08827,-86.45845 -54.75036,-114.22743 z m -64.79458,154.01004 c 13.19525,-9.05935 21.0727,-23.83023 20.87608,-39.78261 0,-15.95249 -7.87774,-30.72322 -20.87608,-39.7827 -6.49909,-4.52967 -13.58915,-7.28692 -21.46688,-8.46854 -7.68083,-1.1817 -15.36157,-0.98508 -23.2394,-0.98508 H 431.84386 c -7.6808,0 -15.55857,-0.19665 -23.23937,0.98508 -7.68083,1.18162 -14.96772,3.93887 -21.46688,8.46854 -12.99831,9.05948 -20.87607,23.83021 -20.87607,39.7827 0,15.95238 7.87776,30.72326 20.87607,39.78261 6.49916,4.5298 13.58912,7.28693 21.46688,8.46867 7.6808,1.18167 15.36163,0.98505 23.23937,0.98505 h 160.50922 c 7.68083,0 15.55857,0.19656 23.2394,-0.98505 7.68086,-1.18174 14.96779,-3.93887 21.46688,-8.46867 z" /></clipPath></defs><g
     inkscape:label="Layer 1"
     inkscape:groupmode="layer"
     id="layer1"
     transform="translate(-124.55565,-167.56622)"><g
       id="g1196"
       transform="matrix(0.08598408,0,0,0.08598408,120.42842,160.95624)"
       inkscape:export-filename="gdop_logo_w.svg"
       inkscape:export-xdpi="111.943"
       inkscape:export-ydpi="111.943"
       clip-path="url(#clipath_lpe_path-effect1200)"
       inkscape:path-effect="#path-effect1200"><path
         d="m 0,0 v -47.514 -6.035 -5.492 c 0.108,-0.001 0.216,-0.005 0.323,-0.015 l 36.196,-3.49 c 1.896,-0.183 3.382,-1.709 3.514,-3.609 l 1.116,-15.978 31.574,-2.253 2.175,14.747 c 0.282,1.912 1.922,3.329 3.856,3.329 h 38.188 c 1.933,0 3.573,-1.417 3.855,-3.329 l 2.175,-14.747 31.575,2.253 1.115,15.978 c 0.133,1.9 1.618,3.425 3.514,3.609 l 36.182,3.49 c 0.107,0.01 0.214,0.014 0.322,0.015 v 4.711 l 0.015,0.005 V 0 c 5.09692,6.4164715 9.92323,13.494208 13.621,19.449 -5.651,9.62 -12.575,18.217 -19.976,26.182 -6.864,-3.455 -13.531,-7.369 -19.828,-11.534 -3.151,3.132 -6.7,5.694 -10.186,8.372 -3.425,2.751 -7.285,4.768 -10.946,7.118 1.09,8.117 1.629,16.108 1.846,24.448 -9.446,4.754 -19.519,7.906 -29.708,10.17 -4.068,-6.837 -7.788,-14.241 -11.028,-21.479 -3.842,0.642 -7.702,0.88 -11.567,0.926 v 0.006 c -0.027,0 -0.052,-0.006 -0.075,-0.006 -0.024,0 -0.049,0.006 -0.073,0.006 V 63.652 C 93.903,63.606 90.046,63.368 86.203,62.726 82.965,69.964 79.247,77.368 75.173,84.205 64.989,81.941 54.915,78.789 45.47,74.035 45.686,65.695 46.225,57.704 47.318,49.587 43.65,47.237 39.795,45.22 36.369,42.469 32.888,39.791 29.333,37.229 26.181,34.097 19.884,38.262 13.219,42.176 6.353,45.631 -1.048,37.666 -7.968,29.069 -13.621,19.449 -9.1783421,12.475308 -4.4130298,5.4661124 0,0 Z"
         fill="#478cbf"
         transform="matrix(4.162611,0,0,-4.162611,104.69892,427.38725)"
         id="path1192"
         inkscape:original-d="m 0,0 v -47.514 -6.035 -5.492 c 0.108,-0.001 0.216,-0.005 0.323,-0.015 l 36.196,-3.49 c 1.896,-0.183 3.382,-1.709 3.514,-3.609 l 1.116,-15.978 31.574,-2.253 2.175,14.747 c 0.282,1.912 1.922,3.329 3.856,3.329 h 38.188 c 1.933,0 3.573,-1.417 3.855,-3.329 l 2.175,-14.747 31.575,2.253 1.115,15.978 c 0.133,1.9 1.618,3.425 3.514,3.609 l 36.182,3.49 c 0.107,0.01 0.214,0.014 0.322,0.015 v 4.711 l 0.015,0.005 V 0 c 5.09692,6.4164715 9.92323,13.494208 13.621,19.449 -5.651,9.62 -12.575,18.217 -19.976,26.182 -6.864,-3.455 -13.531,-7.369 -19.828,-11.534 -3.151,3.132 -6.7,5.694 -10.186,8.372 -3.425,2.751 -7.285,4.768 -10.946,7.118 1.09,8.117 1.629,16.108 1.846,24.448 -9.446,4.754 -19.519,7.906 -29.708,10.17 -4.068,-6.837 -7.788,-14.241 -11.028,-21.479 -3.842,0.642 -7.702,0.88 -11.567,0.926 v 0.006 c -0.027,0 -0.052,-0.006 -0.075,-0.006 -0.024,0 -0.049,0.006 -0.073,0.006 V 63.652 C 93.903,63.606 90.046,63.368 86.203,62.726 82.965,69.964 79.247,77.368 75.173,84.205 64.989,81.941 54.915,78.789 45.47,74.035 45.686,65.695 46.225,57.704 47.318,49.587 43.65,47.237 39.795,45.22 36.369,42.469 32.888,39.791 29.333,37.229 26.181,34.097 19.884,38.262 13.219,42.176 6.353,45.631 -1.048,37.666 -7.968,29.069 -13.621,19.449 -9.1783421,12.475308 -4.4130298,5.4661124 0,0 Z"
         style="fill:#ffffff;fill-opacity:1" /><path
         d="m 0,0 -1.121,-16.063 c -0.135,-1.936 -1.675,-3.477 -3.611,-3.616 l -38.555,-2.751 c -0.094,-0.007 -0.188,-0.01 -0.281,-0.01 -1.916,0 -3.569,1.406 -3.852,3.33 l -2.211,14.994 H -81.09 l -2.211,-14.994 c -0.297,-2.018 -2.101,-3.469 -4.133,-3.32 l -38.555,2.751 c -1.936,0.139 -3.476,1.68 -3.611,3.616 L -130.721,0 -163.268,3.138 c 0.015,-3.498 0.06,-7.33 0.06,-8.093 0,-34.374 43.605,-50.896 97.781,-51.086 h 0.066 0.067 c 54.176,0.19 97.766,16.712 97.766,51.086 0,0.777 0.047,4.593 0.063,8.093 z"
         fill="#478cbf"
         transform="matrix(4.162611,0,0,-4.162611,784.07144,718.72312)"
         id="path1194"
         inkscape:original-d="m 0,0 -1.121,-16.063 c -0.135,-1.936 -1.675,-3.477 -3.611,-3.616 l -38.555,-2.751 c -0.094,-0.007 -0.188,-0.01 -0.281,-0.01 -1.916,0 -3.569,1.406 -3.852,3.33 l -2.211,14.994 H -81.09 l -2.211,-14.994 c -0.297,-2.018 -2.101,-3.469 -4.133,-3.32 l -38.555,2.751 c -1.936,0.139 -3.476,1.68 -3.611,3.616 L -130.721,0 -163.268,3.138 c 0.015,-3.498 0.06,-7.33 0.06,-8.093 0,-34.374 43.605,-50.896 97.781,-51.086 h 0.066 0.067 c 54.176,0.19 97.766,16.712 97.766,51.086 0,0.777 0.047,4.593 0.063,8.093 z"
         style="fill:#ffffff;fill-opacity:1" /></g></g><style
     type="text/css"
     id="style39">
	.st0{fill:#1C1E20;}
</style></svg>
